# xmcd
#
# Track frame offsets:
#	150
#	27217
#	43028
#	66095
#	89806
#	106384
#	122728
#	135942
#	157137
#	175839
#	194058
#	208409
#	225211
#	246865
#
# Disc length: 3521 seconds
# Revision: 2
# Processed by: cddbd v1.5.2PL0 Copyright (c) Steve Scherf et al.
# Submitted via: dBpowerAMP V12.0
#
DISCID=c80dbf0e
DTITLE=Various Artist - This Is My Demo
DYEAR=2006
DGENRE=UK Hip-Hop
TTITLE0=Sway (Feat. Sewuese) - This Is My Demo
TTITLE1=Sway (Feat. El Rae) - Products (Of The City)
TTITLE2=Sway (Feat. Bigz) - Hype Boys
TTITLE3=Sway (Feat. Baby Blue) - Little Derek
TTITLE4=Sway (Feat. El Rae and Latoya) - Pretty Ugly Husband
TTITLE5=Sway (Feat. Lumes and Selicia) - Flo Fashion
TTITLE6=Sway (Feat. Pyrelli) - Up Your Speed
TTITLE7=Sway - Download
TTITLE8=Sway (Feat. Bigz, Pyrelli and Haydon) - Loose Woose
TTITLE9=Sway (Feat. Sewuese) - Sick World
TTITLE10=Sway (Feat. Nate James) - Still On My Own
TTITLE11=Sway (Feat. Haydon and Ny) - Back For You
TTITLE12=Sway (Feat. Sewuese) - Slo' Down (Bonus Track)
TTITLE13=Sway - Month In The Summer (Bonus Track)
EXTD=
EXTT0=
EXTT1=
EXTT2=
EXTT3=
EXTT4=
EXTT5=
EXTT6=
EXTT7=
EXTT8=
EXTT9=
EXTT10=
EXTT11=
EXTT12=
EXTT13=
PLAYORDER=
